<?xml version="1.0" encoding="UTF-8"?>
<svg width="1101px" height="459px" viewBox="0 0 1101 459" version="1.1" xmlns="http://www.w3.org/2000/svg" xmlns:xlink="http://www.w3.org/1999/xlink">
    <!-- Generator: Sketch 42 (36781) - http://www.bohemiancoding.com/sketch -->
    <title>Group</title>
    <desc>Created with Sketch.</desc>
    <defs></defs>
    <g id="Site" stroke="none" stroke-width="1" fill="none" fill-rule="evenodd">
        <g id="Desktop-HD" transform="translate(-170.000000, -271.000000)" fill="#000000">
            <g id="Group" transform="translate(170.000000, 271.000000)">
                <path d="M586.983055,455.385827 L586.983055,258.295925 L567.295223,258.295925 C553.871701,271.117205 534.780469,282.149469 519.567144,286.323839 L519.567144,307.493858 C530.604262,305.406673 550.590395,297.356102 560.136011,290.498209 L560.136011,455.385827 L586.983055,455.385827 Z" id="Path"></path>
                <path d="M677.105962,458.963858 C638.923499,458.963858 609.39175,436.302992 609.39175,399.926339 C609.39175,372.196594 628.184681,356.095453 645.187809,349.535728 C627.886381,341.186988 617.744164,327.471201 617.744164,308.090197 C617.744164,277.676929 639.221799,255.612402 679.790666,255.612402 C716.481627,255.612402 739.152464,277.37876 739.152464,307.493858 C739.152464,328.663878 727.817046,342.379665 712.00712,348.343051 C730.50175,354.306437 746.908277,372.792933 746.908277,399.031831 C746.908277,436.601161 717.674829,458.963858 677.105962,458.963858 Z M678.299164,437.1975 C703.058105,437.1975 720.061233,424.078051 720.061233,398.733661 C720.061233,373.98561 704.251307,360.866161 678.299164,360.866161 C649.662317,360.866161 636.537095,377.265472 636.537095,398.733661 C636.537095,420.50002 651.75042,437.1975 678.299164,437.1975 Z M678.895765,277.37876 C653.838524,277.37876 643.696307,289.90187 643.696307,308.090197 C643.696307,324.489508 654.435125,338.503465 679.194065,338.503465 C702.759804,338.503465 713.200322,327.173031 713.200322,308.984705 C713.200322,291.690886 702.461504,277.37876 678.895765,277.37876 Z" id="Combined-Shape"></path>
                <polygon id="Path" points="790.794608 455.385827 790.794608 412.15128 764.245864 412.15128 764.245864 455.385827"></polygon>
                <polygon id="Path" points="790.794608 347.746713 790.794608 304.810335 764.245864 304.810335 764.245864 347.746713"></polygon>
                <path d="M878.53111,255.612402 C931.330298,255.612402 946.245322,305.704843 946.245322,355.797283 C946.245322,404.398878 932.5235,458.963858 877.636209,458.963858 C823.94212,458.963858 809.027096,407.976909 809.027096,357.28813 C809.027096,306.89752 825.433623,255.612402 878.53111,255.612402 Z M878.829411,277.975098 C844.524854,277.975098 836.769041,314.053583 836.769041,357.28813 C836.769041,394.559291 843.331652,436.601161 877.934509,436.601161 C912.537367,436.601161 918.801677,396.646476 918.801677,356.095453 C918.801677,318.227953 912.239066,277.975098 878.829411,277.975098 Z" id="Combined-Shape"></path>
                <path d="M1025.03281,255.612402 C1077.832,255.612402 1092.74702,305.704843 1092.74702,355.797283 C1092.74702,404.398878 1079.0252,458.963858 1024.13791,458.963858 C970.44382,458.963858 955.528796,407.976909 955.528796,357.28813 C955.528796,306.89752 971.935323,255.612402 1025.03281,255.612402 Z M1025.33111,277.975098 C991.026554,277.975098 983.270741,314.053583 983.270741,357.28813 C983.270741,394.559291 989.833352,436.601161 1024.43621,436.601161 C1059.03907,436.601161 1065.30338,396.646476 1065.30338,356.095453 C1065.30338,318.227953 1058.74077,277.975098 1025.33111,277.975098 Z" id="Combined-Shape"></path>
                <path d="M67.4159113,199.773425 L67.4159113,2.68352362 L47.7280788,2.68352362 C34.3045567,15.5048031 15.2133251,26.5370669 0,30.711437 L0,51.8814567 C11.0371182,49.7942717 31.0232512,41.7437008 40.568867,34.8858071 L40.568867,199.773425 L67.4159113,199.773425 Z M118.759754,50.3906102 C122.63766,34.5876378 131.288375,22.0645276 154.854114,22.0645276 C176.63005,22.0645276 188.263769,33.9912992 188.263769,51.8814567 C188.263769,72.4551378 177.226651,82.2947244 151.274508,82.2947244 L139.640789,82.2947244 L139.640789,103.762913 L153.660912,103.762913 C180.209656,103.762913 196.317882,115.689685 196.317882,141.928583 C196.317882,163.098602 184.385862,181.585098 156.345616,181.585098 C130.990074,181.585098 117.864853,166.378465 113.986946,149.084646 L88.0348033,149.084646 C91.0178082,175.025374 110.10904,203.351457 155.152414,203.351457 C203.775394,203.351457 223.164926,172.938189 223.164926,141.630413 C223.164926,112.409823 206.460099,97.7995276 188.86037,92.134311 L188.86037,91.5379724 C200.79239,87.0654331 214.812513,74.8404921 214.812513,50.9869488 C214.812513,24.7480512 196.317882,0 155.749015,0 C113.688646,0 96.6855176,26.2388976 93.4042122,50.3906102 L118.759754,50.3906102 Z M263.471651,199.773425 L263.471651,155.64437 L236.028006,155.64437 L236.028006,199.773425 L263.471651,199.773425 Z M337.188031,0 C389.987218,0 404.902242,50.0924409 404.902242,100.184882 C404.902242,148.786476 391.18042,203.351457 336.293129,203.351457 C282.59904,203.351457 267.684016,152.364508 267.684016,101.675728 C267.684016,51.2851181 284.090543,0 337.188031,0 Z M337.486331,22.3626969 C303.181774,22.3626969 295.425962,58.4411811 295.425962,101.675728 C295.425962,138.94689 301.988572,180.98876 336.59143,180.98876 C371.194287,180.98876 377.458597,141.034075 377.458597,100.483051 C377.458597,62.6155512 370.895986,22.3626969 337.486331,22.3626969 Z M545.139632,3.5780315 L437.453154,3.5780315 C434.76845,28.3260827 427.310937,84.3819094 421.344927,110.024469 L445.805568,114.497008 C452.666479,98.6940354 462.510395,88.8544488 486.076134,88.8544488 C513.51978,88.8544488 523.960297,108.235453 523.960297,133.579843 C523.960297,162.502264 510.835075,181.585098 483.988031,181.585098 C461.615494,181.585098 448.788573,168.46565 444.314065,150.575492 L417.765322,150.575492 C422.83643,183.970453 448.191972,203.351457 483.093129,203.351457 C530.821208,203.351457 550.807341,169.956496 550.807341,131.790827 C550.807341,91.5379724 527.539903,66.491752 491.743844,66.491752 C471.757711,66.491752 458.93079,73.0514764 450.578376,82.2947244 C452.666479,71.8587992 457.439287,42.0418701 459.22909,26.2388976 L541.261726,26.2388976 L545.139632,3.5780315 Z M588.131061,199.773425 L588.131061,155.64437 L560.687416,155.64437 L560.687416,199.773425 L588.131061,199.773425 Z M736.124263,199.773425 L740.00217,176.81439 L637.0885,176.81439 C641.861307,161.607756 656.179731,146.102953 683.325076,125.231102 C719.717736,97.203189 732.246357,85.5745866 732.246357,55.7576575 C732.246357,28.3260827 715.243229,0 671.094756,0 C631.12249,0 609.943155,25.0462205 606.363549,58.4411811 L632.017391,58.4411811 C636.193598,34.2894685 647.230716,22.0645276 671.094756,22.0645276 C694.660495,22.0645276 705.101012,36.6748228 705.101012,56.3539961 C705.101012,78.1203543 696.748598,85.8727559 665.128746,109.726299 C624.559879,140.437736 606.065248,169.658327 606.065248,198.282579 L606.065248,199.773425 L736.124263,199.773425 Z M814.911751,0 C867.710938,0 882.625963,50.0924409 882.625963,100.184882 C882.625963,148.786476 868.90414,203.351457 814.01685,203.351457 C760.322761,203.351457 745.407736,152.364508 745.407736,101.675728 C745.407736,51.2851181 761.814263,0 814.911751,0 Z M815.210052,22.3626969 C780.905495,22.3626969 773.149682,58.4411811 773.149682,101.675728 C773.149682,138.94689 779.712293,180.98876 814.31515,180.98876 C848.918007,180.98876 855.182318,141.034075 855.182318,100.483051 C855.182318,62.6155512 848.619707,22.3626969 815.210052,22.3626969 Z M956.640643,199.773425 L956.640643,2.68352362 L936.952811,2.68352362 C923.529288,15.5048031 904.438057,26.5370669 889.224732,30.711437 L889.224732,51.8814567 C900.26185,49.7942717 920.247983,41.7437008 929.793599,34.8858071 L929.793599,199.773425 L956.640643,199.773425 Z M971.890126,3.5780315 L971.890126,26.5370669 L1073.01399,26.5370669 C1041.39414,68.2807677 1006.49298,144.015768 997.543969,199.773425 L1024.68931,199.773425 C1034.53323,141.928583 1066.45138,70.9642913 1100.75594,25.0462205 L1100.75594,3.5780315 L971.890126,3.5780315 Z" id="13.05.2017"></path>
                <path d="M67.4159113,455.503287 L67.4159113,258.413386 L47.7280788,258.413386 C34.3045567,271.234665 15.2133251,282.266929 0,286.441299 L0,307.611319 C11.0371182,305.524134 31.0232512,297.473563 40.568867,290.615669 L40.568867,455.503287 L67.4159113,455.503287 Z" id="Path"></path>
                <path d="M159.789631,255.612402 C212.588818,255.612402 227.503843,305.704843 227.503843,355.797283 C227.503843,404.398878 213.78202,458.963858 158.894729,458.963858 C105.200641,458.963858 90.2856161,407.976909 90.2856161,357.28813 C90.2856161,306.89752 106.692143,255.612402 159.789631,255.612402 Z M160.087931,277.975098 C125.783375,277.975098 118.027562,314.053583 118.027562,357.28813 C118.027562,394.559291 124.590173,436.601161 159.19303,436.601161 C193.795887,436.601161 200.060197,396.646476 200.060197,356.095453 C200.060197,318.227953 193.497587,277.975098 160.087931,277.975098 Z" id="Combined-Shape"></path>
                <polygon id="Path" points="274.436454 367.425886 274.436454 390.384921 493.985616 390.384921 493.985616 367.425886"></polygon>
            </g>
        </g>
    </g>
</svg>