<?xml version="1.0" encoding="UTF-8"?>
<svg width="846px" height="354px" viewBox="0 0 846 354" version="1.1" xmlns="http://www.w3.org/2000/svg" xmlns:xlink="http://www.w3.org/1999/xlink">
    <!-- Generator: Sketch 43.2 (39069) - http://www.bohemiancoding.com/sketch -->
    <title>Group</title>
    <desc>Created with Sketch.</desc>
    <defs></defs>
    <g id="Page-1" stroke="none" stroke-width="1" fill="none" fill-rule="evenodd">
        <g id="1-copy-4" transform="translate(-298.000000, -273.000000)" fill="#0057FF">
            <g id="Group" transform="translate(298.000000, 273.000000)">
                <path d="M451.033301,351.212598 L451.033301,199.208622 L435.905321,199.208622 C425.590789,209.096929 410.921232,217.605472 399.231429,220.824921 L399.231429,237.152126 C407.712267,235.542402 423.069459,229.333465 430.404237,224.04437 L430.404237,351.212598 L451.033301,351.212598 Z" id="Path"></path>
                <path d="M520.283055,353.972126 C490.943942,353.972126 468.251972,336.495118 468.251972,308.439921 C468.251972,287.053583 482.692316,274.635709 495.75739,269.576575 C482.463105,263.137677 474.669903,252.559488 474.669903,237.612047 C474.669903,214.156063 491.173154,197.138976 522.345962,197.138976 C550.539016,197.138976 567.959114,213.926102 567.959114,237.152126 C567.959114,253.479331 559.249065,264.05752 547.100838,268.656732 C561.311972,273.255945 573.918622,287.513504 573.918622,307.750039 C573.918622,336.725079 551.455863,353.972126 520.283055,353.972126 Z M521.199903,337.185 C540.224484,337.185 553.289558,327.066732 553.289558,307.520079 C553.289558,288.433346 541.141331,278.315079 521.199903,278.315079 C499.195568,278.315079 489.110247,290.962913 489.110247,307.520079 C489.110247,324.307205 500.80005,337.185 521.199903,337.185 Z M521.658326,213.926102 C502.404533,213.926102 494.611331,223.584449 494.611331,237.612047 C494.611331,250.259882 502.862957,261.068031 521.887538,261.068031 C539.995272,261.068031 548.017686,252.329528 548.017686,238.301929 C548.017686,224.964213 539.76606,213.926102 521.658326,213.926102 Z" id="Combined-Shape"></path>
                <polygon id="Path" points="607.640543 351.212598 607.640543 317.868307 587.240691 317.868307 587.240691 351.212598"></polygon>
                <polygon id="Path" points="607.640543 268.196811 607.640543 235.08248 587.240691 235.08248 587.240691 268.196811"></polygon>
                <path d="M675.056603,197.138976 C715.627095,197.138976 727.087686,235.772362 727.087686,274.405748 C727.087686,311.889331 716.543942,353.972126 674.368967,353.972126 C633.110839,353.972126 621.650248,314.648858 621.650248,275.555551 C621.650248,236.692205 634.256898,197.138976 675.056603,197.138976 Z M675.285814,214.386024 C648.926455,214.386024 642.966947,242.21126 642.966947,275.555551 C642.966947,304.30063 648.009608,336.725079 674.598179,336.725079 C701.18675,336.725079 706.000199,305.910354 706.000199,274.635709 C706.000199,245.430709 700.957539,214.386024 675.285814,214.386024 Z" id="Combined-Shape"></path>
                <path d="M787.627391,197.138976 C828.197884,197.138976 839.658475,235.772362 839.658475,274.405748 C839.658475,311.889331 829.114731,353.972126 786.939756,353.972126 C745.681627,353.972126 734.221036,314.648858 734.221036,275.555551 C734.221036,236.692205 746.827687,197.138976 787.627391,197.138976 Z M787.856603,214.386024 C761.497243,214.386024 755.537736,242.21126 755.537736,275.555551 C755.537736,304.30063 760.580396,336.725079 787.168967,336.725079 C813.757539,336.725079 818.570987,305.910354 818.570987,274.635709 C818.570987,245.430709 813.528327,214.386024 787.856603,214.386024 Z" id="Combined-Shape"></path>
                <path d="M51.8018719,154.073622 L51.8018719,2.06964567 L36.6738916,2.06964567 C26.3593596,11.9579528 11.689803,20.4664961 0,23.6859449 L0,40.0131496 C8.48083744,38.4034252 23.8380296,32.1944882 31.1728079,26.9053937 L31.1728079,154.073622 L51.8018719,154.073622 Z M91.2540889,38.8633465 C94.2338426,26.6754331 100.880985,17.0170866 118.988719,17.0170866 C135.721183,17.0170866 144.660444,26.2155118 144.660444,40.0131496 C144.660444,55.8804331 136.179606,63.4691339 116.238178,63.4691339 L107.298917,63.4691339 L107.298917,80.0262992 L118.071872,80.0262992 C138.471724,80.0262992 150.849163,89.2247244 150.849163,109.46126 C150.849163,125.788465 141.68069,140.046024 120.134779,140.046024 C100.651774,140.046024 90.5664535,128.318031 87.5866998,114.980315 L67.6452712,114.980315 C69.9373894,134.98689 84.6069461,156.83315 119.217931,156.83315 C156.579458,156.83315 171.478227,133.377165 171.478227,109.231299 C171.478227,86.6951575 158.642365,75.4270866 145.118867,71.0578346 L145.118867,70.5979134 C154.28734,67.1485039 165.060296,57.7201181 165.060296,39.3232677 C165.060296,19.0867323 150.849163,0 119.676355,0 C87.3574879,0 74.2924141,20.2365354 71.771084,38.8633465 L91.2540889,38.8633465 Z M202.449606,154.073622 L202.449606,120.039449 L181.362119,120.039449 L181.362119,154.073622 L202.449606,154.073622 Z M259.09271,0 C299.663203,0 311.123794,38.6333858 311.123794,77.2667717 C311.123794,114.750354 300.58005,156.83315 258.405075,156.83315 C217.146947,156.83315 205.686355,117.509882 205.686355,78.4165748 C205.686355,39.5532283 218.293006,0 259.09271,0 Z M259.321922,17.2470472 C232.962562,17.2470472 227.003055,45.0722835 227.003055,78.4165748 C227.003055,107.161654 232.045715,139.586102 258.634287,139.586102 C285.222858,139.586102 290.036306,108.771378 290.036306,77.4967323 C290.036306,48.2917323 284.993646,17.2470472 259.321922,17.2470472 Z M418.881134,2.75952756 L336.135666,2.75952756 C334.07276,21.8462598 328.342464,65.0788583 323.758228,84.8554724 L342.553597,88.3048819 C347.825469,76.1169685 355.389459,68.5282677 373.497193,68.5282677 C394.584681,68.5282677 402.607095,83.4757087 402.607095,103.022362 C402.607095,125.328543 392.521774,140.046024 371.89271,140.046024 C354.701824,140.046024 344.845715,129.927756 341.407538,116.130118 L321.007686,116.130118 C324.904287,141.885709 344.387292,156.83315 371.205075,156.83315 C407.878967,156.83315 423.236159,131.077559 423.236159,101.642598 C423.236159,70.5979134 405.357637,51.2812205 377.852218,51.2812205 C362.495026,51.2812205 352.638917,56.3403543 346.220986,63.4691339 C347.825469,55.4205118 351.492858,32.4244488 352.868129,20.2365354 L415.90138,20.2365354 L418.881134,2.75952756 Z M451.91542,154.073622 L451.91542,120.039449 L430.827932,120.039449 L430.827932,154.073622 L451.91542,154.073622 Z M565.632268,154.073622 L568.612021,136.366654 L489.533942,136.366654 C493.201332,124.638661 504.203499,112.680709 525.061775,96.5834646 C553.025617,74.9671654 562.652514,65.9987008 562.652514,43.0026378 C562.652514,21.8462598 549.58744,0 515.66409,0 C484.949706,0 468.675667,19.3166929 465.925125,45.0722835 L485.637341,45.0722835 C488.846307,26.4454724 497.327144,17.0170866 515.66409,17.0170866 C533.771824,17.0170866 541.794238,28.2851575 541.794238,43.4625591 C541.794238,60.249685 535.376307,66.2286614 511.079854,84.6255118 C479.907046,108.311457 465.695913,130.847598 465.695913,152.923819 L465.695913,154.073622 L565.632268,154.073622 Z M626.171972,0 C666.742465,0 678.203056,38.6333858 678.203056,77.2667717 C678.203056,114.750354 667.659312,156.83315 625.484337,156.83315 C584.226209,156.83315 572.765618,117.509882 572.765618,78.4165748 C572.765618,39.5532283 585.372268,0 626.171972,0 Z M626.401184,17.2470472 C600.041825,17.2470472 594.082317,45.0722835 594.082317,78.4165748 C594.082317,107.161654 599.124977,139.586102 625.713549,139.586102 C652.30212,139.586102 657.115568,108.771378 657.115568,77.4967323 C657.115568,48.2917323 652.072908,17.2470472 626.401184,17.2470472 Z M735.075372,154.073622 L735.075372,2.06964567 L719.947391,2.06964567 C709.632859,11.9579528 694.963303,20.4664961 683.2735,23.6859449 L683.2735,40.0131496 C691.754337,38.4034252 707.111529,32.1944882 714.446308,26.9053937 L714.446308,154.073622 L735.075372,154.073622 Z M746.792958,2.75952756 L746.792958,20.4664961 L824.495766,20.4664961 C800.199313,52.6609843 773.381529,111.070984 766.505175,154.073622 L787.363451,154.073622 C794.927441,109.46126 819.453106,54.7306299 845.812465,19.3166929 L845.812465,2.75952756 L746.792958,2.75952756 Z" id="13.05.2017"></path>
                <path d="M51.8018719,351.303189 L51.8018719,199.299213 L36.6738916,199.299213 C26.3593596,209.18752 11.689803,217.696063 0,220.915512 L0,237.242717 C8.48083744,235.632992 23.8380296,229.424055 31.1728079,224.134961 L31.1728079,351.303189 L51.8018719,351.303189 Z M160.517166,351.223529 L141.153678,351.223529 L141.153678,312.121569 L69.9237057,312.121569 L69.9237057,293.611765 L138.848501,198.980392 L160.517166,198.980392 L160.517166,294.537255 L180.111172,294.537255 L178.036512,312.121569 L160.517166,312.121569 L160.517166,351.223529 Z M141.153678,294.537255 L141.153678,256.129412 C141.153678,244.329412 141.384196,229.290196 141.614714,219.341176 C135.621253,231.141176 106.114986,271.862745 89.7482289,294.537255 L141.153678,294.537255 Z" id="Path"></path>
                <polygon id="Path" points="210.874877 283.374213 210.874877 301.081181 379.574779 301.081181 379.574779 283.374213"></polygon>
            </g>
        </g>
    </g>
</svg>