<?xml version="1.0" encoding="utf-8"?>
<!-- Generator: Adobe Illustrator 20.1.0, SVG Export Plug-In . SVG Version: 6.00 Build 0)  -->
<svg version="1.1" id="Layer_1" xmlns="http://www.w3.org/2000/svg" xmlns:xlink="http://www.w3.org/1999/xlink" x="0px" y="0px"
	 viewBox="0 0 185 21" style="enable-background:new 0 0 185 21;" xml:space="preserve">
<style type="text/css">
	.st0{fill:#FFFFFF;}
</style>
<g>
	<polygon id="path-1" class="st0" points="135.6,0.4 135.6,16.7 127.2,0.4 122.5,0.4 122.5,20.6 125.7,20.6 125.7,4.6 133.8,20.6 
		138.8,20.6 138.8,0.4 	"/>
</g>
<title>Group 4</title>
<desc>Created with Sketch.</desc>
<g id="Page-1">
	<g id="_x31_-copy" transform="translate(-290.000000, -80.000000)">
		<g id="Group-4" transform="translate(290.000000, 80.000000)">
			<polygon id="Fill-1" class="st0" points="164.3,0.4 160.5,10.6 156.8,0.4 152.3,0.4 152.3,20.5 155.5,20.5 155.5,4.5 159.7,16.8 
				161.6,16.8 165.6,4.5 165.6,20.5 168.9,20.5 168.9,0.4 			"/>
			<polygon id="Fill-2" class="st0" points="164.3,0.4 160.5,10.6 156.8,0.4 152.3,0.4 152.3,20.5 155.5,20.5 155.5,4.5 159.7,16.8 
				161.6,16.8 165.6,4.5 165.6,20.5 168.9,20.5 168.9,0.4 			"/>
			<path id="Fill-10" class="st0" d="M11.3,12.8L8.7,4.1l-2.6,8.8L11.3,12.8L11.3,12.8z M11,0.2l6.4,20.3h-3.8l-1.4-4.8H5.3
				l-1.4,4.8H0L6.6,0.2H11z"/>
			<path id="Clip-13" class="st0" d="M6.6,0.2H11l6.4,20.3h-3.8l-1.4-4.8H5.3l-1.4,4.8H0L6.6,0.2z M8.7,4.1l-2.6,8.8h5.1L8.7,4.1z"
				/>
			<path id="Fill-16" class="st0" d="M28.8,14.2c0-0.4-0.1-0.8-0.3-1.1c-0.2-0.3-0.4-0.6-0.7-0.8c-0.3-0.2-0.6-0.3-1-0.4
				c-0.4-0.1-0.8-0.1-1.2-0.1h-2.9v5.5h3.4c0.4,0,0.7,0,1.1-0.1c0.3,0,0.6-0.1,0.8-0.3c0.2-0.1,0.4-0.3,0.6-0.6
				c0.1-0.2,0.2-0.6,0.2-1V14.2z M22.8,8.8h2.7c0.8,0,1.5-0.2,1.9-0.6c0.5-0.4,0.7-1,0.7-1.9V5.8c0-0.8-0.2-1.4-0.7-1.7
				c-0.5-0.3-1.1-0.4-1.9-0.4h-2.7V8.8z M31.7,7.4c-0.1,0.4-0.2,0.7-0.4,1.1c-0.2,0.3-0.4,0.7-0.7,0.9c-0.3,0.3-0.6,0.5-0.9,0.7
				c0.9,0.4,1.6,0.9,2.1,1.7c0.5,0.8,0.7,1.6,0.7,2.7v1c0,1.7-0.5,3-1.4,3.8c-0.9,0.9-2.2,1.3-3.9,1.3h-8V0.4h7.4
				c1.6,0,2.9,0.5,3.8,1.5s1.4,2.3,1.4,3.9v0.5C31.8,6.7,31.8,7,31.7,7.4L31.7,7.4z"/>
			<path id="Clip-19" class="st0" d="M19.2,0.4h7.4c1.6,0,2.9,0.5,3.8,1.5s1.4,2.3,1.4,3.9v0.5c0,0.4,0,0.7-0.1,1.1
				s-0.2,0.7-0.4,1.1c-0.2,0.3-0.4,0.7-0.7,0.9c-0.3,0.3-0.6,0.5-0.9,0.7c0.9,0.4,1.6,0.9,2.1,1.7c0.5,0.7,0.7,1.6,0.7,2.7v1
				c0,1.7-0.5,3-1.4,3.8c-0.9,0.9-2.2,1.3-3.9,1.3h-8V0.4z M22.8,3.6v5.2h2.7c0.8,0,1.5-0.2,1.9-0.6c0.5-0.4,0.7-1,0.7-1.9V5.8
				c0-0.8-0.2-1.4-0.7-1.7c-0.5-0.3-1.1-0.4-1.9-0.4h-2.7V3.6z M22.8,11.8v5.5h3.4c0.4,0,0.7,0,1.1-0.1c0.3,0,0.6-0.1,0.8-0.3
				c0.2-0.1,0.4-0.3,0.6-0.6c0.1-0.2,0.2-0.6,0.2-1v-1.2c0-0.4-0.1-0.8-0.3-1.1c-0.2-0.3-0.4-0.6-0.7-0.8c-0.3-0.2-0.6-0.3-1-0.4
				c-0.4-0.1-0.8-0.2-1.2-0.2h-2.9V11.8z"/>
			<polygon id="Fill-22" class="st0" points="38.7,11.7 38.7,17.3 46.8,17.3 46.8,20.6 35,20.6 35,0.4 46.2,0.4 46.2,3.6 38.7,3.6 
				38.7,8.6 45,8.6 45,11.7 			"/>
			<polygon id="Clip-25" class="st0" points="35,0.4 35,20.6 46.8,20.6 46.8,17.3 38.7,17.3 38.7,11.7 45,11.7 45,8.6 38.7,8.6 
				38.7,3.6 46.2,3.6 46.2,0.4 			"/>
			<path id="Fill-28" class="st0" d="M59.6,6.9c0-0.6-0.1-1.1-0.3-1.5s-0.5-0.8-0.8-1c-0.4-0.3-0.8-0.5-1.2-0.6
				c-0.5-0.1-1-0.2-1.6-0.2h-3v13.6h2.7c0.6,0,1.1-0.1,1.6-0.2s1-0.3,1.3-0.6c0.4-0.3,0.7-0.6,0.9-1s0.3-0.9,0.3-1.5L59.6,6.9
				L59.6,6.9z M55.7,0.4c1.1,0,2.1,0.1,3,0.4c1,0.2,1.8,0.6,2.4,1.2c0.7,0.5,1.2,1.2,1.5,2c0.4,0.8,0.6,1.8,0.6,2.9V14
				c0,1.1-0.2,2.1-0.6,2.9c-0.4,0.8-1,1.5-1.7,2s-1.5,0.9-2.5,1.2c-1,0.3-2,0.4-3.1,0.4h-6.2V0.4H55.7z"/>
			<path id="Clip-31" class="st0" d="M49.2,0.4h6.6c1.1,0,2.1,0.1,3,0.4C59.7,1,60.5,1.4,61.1,2c0.7,0.5,1.2,1.2,1.5,2
				c0.4,0.8,0.5,1.8,0.5,2.9V14c0,1.1-0.2,2.1-0.6,2.9c-0.4,0.8-1,1.5-1.7,2s-1.5,0.9-2.5,1.2c-1,0.3-2,0.4-3.1,0.4H49V0.4H49.2z
				 M52.7,3.6v13.6h2.7c0.6,0,1.1-0.1,1.6-0.2s1-0.3,1.3-0.6c0.4-0.3,0.7-0.6,0.9-1s0.3-0.9,0.3-1.5v-7c0-0.6-0.1-1.1-0.3-1.5
				s-0.5-0.8-0.8-1c-0.3-0.3-0.8-0.5-1.2-0.6c-0.5-0.1-1-0.2-1.6-0.2C55.6,3.6,52.7,3.6,52.7,3.6z"/>
			<polygon id="Fill-34" class="st0" points="69.5,11.7 69.5,17.3 77.6,17.3 77.6,20.6 65.8,20.6 65.8,0.4 77,0.4 77,3.6 69.5,3.6 
				69.5,8.6 75.8,8.6 75.8,11.7 			"/>
			<polygon id="Clip-37" class="st0" points="65.8,0.4 65.8,20.6 77.6,20.6 77.6,17.3 69.5,17.3 69.5,11.7 75.8,11.7 75.8,8.6 
				69.5,8.6 69.5,3.6 77,3.6 77,0.4 			"/>
			<path id="Fill-40" class="st0" d="M87.7,8.7c1,0.3,1.9,0.6,2.7,0.9c0.8,0.3,1.5,0.7,2,1.2c0.6,0.5,1,1,1.3,1.7s0.4,1.5,0.4,2.4
				c0,1-0.2,1.9-0.6,2.6s-0.9,1.4-1.6,1.8c-0.7,0.5-1.4,0.8-2.3,1.1c-0.9,0.2-1.8,0.3-2.8,0.3c-0.8,0-1.5-0.1-2.3-0.3
				c-0.8-0.2-1.5-0.4-2.1-0.7c-0.7-0.3-1.3-0.7-1.9-1.2s-1.1-1-1.4-1.6l2.4-2.3c0.2,0.4,0.5,0.7,0.9,1s0.8,0.6,1.3,0.9
				c0.5,0.3,0.9,0.5,1.5,0.6c0.5,0.2,1,0.2,1.4,0.2c0.5,0,0.9,0,1.4-0.1s0.9-0.2,1.3-0.4c0.4-0.2,0.7-0.5,0.9-0.8
				c0.2-0.3,0.3-0.8,0.3-1.3s-0.2-0.9-0.5-1.3c-0.3-0.3-0.7-0.6-1.2-0.8s-1-0.4-1.6-0.6c-0.6-0.2-1.1-0.3-1.6-0.4
				c-0.9-0.3-1.7-0.6-2.5-1c-0.7-0.3-1.3-0.7-1.9-1.2c-0.5-0.5-0.9-1-1.2-1.7c-0.3-0.6-0.4-1.4-0.4-2.3c0-1,0.2-1.8,0.6-2.6
				c0.4-0.7,0.9-1.3,1.5-1.8c0.7-0.5,1.4-0.8,2.3-1s1.8-0.3,2.8-0.3c1.4,0,2.6,0.2,3.7,0.7s2,1,2.8,1.7l-2,2.7c0,0.2-0.3,0-0.6-0.2
				C90.3,4.4,90,4.2,89.6,4s-0.8-0.3-1.3-0.5c-0.4-0.1-0.8-0.2-1.2-0.2c-0.4,0-0.9,0-1.3,0.1S85,3.6,84.7,3.8
				c-0.3,0.2-0.6,0.4-0.8,0.7c-0.2,0.3-0.3,0.7-0.3,1.1c0,0.5,0.1,0.8,0.4,1.1c0.3,0.3,0.6,0.6,1,0.8c0.4,0.2,0.9,0.4,1.4,0.6
				C86.8,8.4,87.3,8.5,87.7,8.7"/>
			<path id="Clip-43" class="st0" d="M84.3,0.4c-0.9,0.2-1.6,0.6-2.3,1c-0.7,0.5-1.2,1-1.5,1.8c-0.4,0.7-0.6,1.6-0.6,2.6
				c0,0.9,0.1,1.6,0.4,2.3c0.3,0.6,0.6,1.2,1.2,1.7c0.5,0.5,1.1,0.9,1.9,1.2c0.7,0.3,1.5,0.7,2.5,1c0.5,0.1,1,0.3,1.6,0.4
				c0.6,0.1,1.1,0.3,1.6,0.6c0.5,0.2,0.9,0.5,1.2,0.8c0.3,0.3,0.5,0.8,0.5,1.3s-0.1,0.9-0.3,1.2c-0.2,0.3-0.5,0.6-0.9,0.8
				c-0.4,0.2-0.8,0.3-1.3,0.4s-0.9,0.1-1.4,0.1c-0.4,0-0.9-0.1-1.4-0.2c-0.5-0.2-1-0.4-1.5-0.6c-0.5-0.3-0.9-0.5-1.3-0.9
				c-0.4-0.3-0.7-0.7-0.9-1l-2.4,2.3c0.4,0.6,0.9,1.1,1.4,1.6c0.6,0.5,1.2,0.9,1.9,1.2c0.7,0.3,1.4,0.6,2.1,0.7
				c0.8,0.2,1.5,0.3,2.3,0.3c1,0,1.9-0.1,2.8-0.3c0.9-0.2,1.7-0.6,2.3-1.1c0.7-0.5,1.2-1.1,1.6-1.8c0.4-0.7,0.6-1.6,0.6-2.6
				c0-0.9-0.1-1.8-0.4-2.4c-0.3-0.7-0.7-1.3-1.3-1.7c-0.5-0.5-1.2-0.9-2-1.2S89,9.3,88,9c-0.5-0.1-1-0.3-1.5-0.4
				c-0.5-0.1-1-0.3-1.4-0.6c-0.4-0.2-0.7-0.5-1-0.8s-0.4-0.7-0.4-1.1c0-0.5,0.1-0.8,0.3-1.1c0.2-0.3,0.5-0.6,0.8-0.7
				c0.3-0.2,0.7-0.3,1.1-0.4s0.9-0.1,1.3-0.1S88,3.9,88.4,4c0.4,0.1,0.9,0.3,1.3,0.5s0.8,0.4,1.1,0.6C91,4.8,91.3,5,91.6,5.2l2-2.7
				c-0.8-0.7-1.8-1.2-2.8-1.7c-1.1-0.5-2.3-0.7-3.7-0.7C86.1,0.1,85.1,0.2,84.3,0.4z"/>
			<polygon id="Fill-46" class="st0" points="97.3,20.6 100.9,20.6 100.9,0.4 97.3,0.4 			"/>
			<polygon id="Clip-49" class="st0" points="97.3,20.6 100.9,20.6 100.9,0.4 97.3,0.4 			"/>
			<path id="Fill-52" class="st0" d="M112.3,9.4h7.4v9c-0.6,0.4-1.3,0.7-1.8,1c-0.6,0.3-1.1,0.6-1.7,0.8c-0.6,0.2-1.2,0.4-1.8,0.5
				c-0.6,0.1-1.3,0.2-2,0.2c-1.1,0-2.1-0.1-3.1-0.4s-1.8-0.7-2.5-1.2s-1.3-1.2-1.6-2c-0.4-0.8-0.6-1.8-0.6-2.9V6.6
				c0-1.1,0.2-2,0.6-2.8s1-1.5,1.7-2s1.5-1,2.5-1.2c0.9-0.3,1.9-0.4,3-0.4c1.3,0,2.5,0.2,3.6,0.6s2.2,1,3.1,1.9l-1.6,2.7
				c-0.7-0.6-1.5-1-2.4-1.4s-1.8-0.5-2.7-0.5c-0.5,0-1.1,0.1-1.6,0.2c-0.5,0.1-1,0.3-1.3,0.6c-0.4,0.3-0.7,0.6-0.9,1
				c-0.2,0.4-0.3,0.9-0.3,1.4v7.7c0,0.6,0.1,1.1,0.3,1.5c0.2,0.4,0.5,0.8,0.9,1c0.4,0.3,0.8,0.5,1.3,0.6s1.1,0.2,1.6,0.2
				c0.7,0,1.3-0.1,1.9-0.1c0.5-0.1,1.1-0.3,1.8-0.7v-4.4h-3.8V9.4z"/>
			<path id="Clip-55" class="st0" d="M109.4,0.5c-0.9,0.3-1.8,0.7-2.5,1.2s-1.3,1.2-1.7,2c-0.4,0.8-0.6,1.8-0.6,2.8v7.7
				c0,1.1,0.2,2.1,0.6,2.9c0.4,0.8,0.9,1.5,1.6,2s1.5,0.9,2.5,1.2c1,0.3,2,0.4,3.1,0.4c0.7,0,1.4-0.1,2-0.2s1.2-0.3,1.8-0.5
				c0.6-0.2,1.1-0.5,1.7-0.8s1.2-0.6,1.8-1v-9h-7.4v3h3.8v4.4c-0.7,0.4-1.3,0.6-1.8,0.7s-1.2,0.1-1.9,0.1c-0.6,0-1.1-0.1-1.6-0.2
				s-1-0.3-1.3-0.6c-0.4-0.3-0.7-0.6-0.9-1c-0.2-0.4-0.3-0.9-0.3-1.5V6.6c0-0.5,0.1-1,0.3-1.4c0.2-0.4,0.5-0.8,0.9-1
				c0.4-0.3,0.8-0.5,1.3-0.6s1-0.2,1.6-0.2c0.9,0,1.8,0.2,2.7,0.5c0.9,0.4,1.7,0.8,2.4,1.4l1.6-2.7c-0.9-0.9-2-1.5-3.1-1.9
				s-2.3-0.6-3.6-0.6C111.3,0.1,110.3,0.2,109.4,0.5z"/>
			<polygon id="Fill-58" class="st0" points="135.6,0.4 138.8,0.4 138.8,20.6 133.8,20.6 125.7,4.6 125.7,20.6 122.5,20.6 
				122.5,0.4 127.2,0.4 135.6,16.7 			"/>
			<polygon id="Fill-3" class="st0" points="164.3,0.4 160.5,10.6 156.8,0.4 152.3,0.4 152.3,20.5 155.5,20.5 155.5,4.5 159.7,16.8 
				161.6,16.8 165.6,4.5 165.6,20.5 168.9,20.5 168.9,0.4 			"/>
			<path id="Fill-4" class="st0" d="M178.2,9.4h6.7v8.9c-0.9,0.8-1.9,1.5-3,1.9c-1,0.4-2.2,0.7-3.4,0.7c-1,0-1.9-0.1-2.7-0.4
				s-1.5-0.7-2.1-1.2s-1.1-1.2-1.4-1.9c-0.3-0.8-0.5-1.7-0.5-2.6V6.2c0-0.9,0.2-1.8,0.5-2.6s0.8-1.4,1.4-1.9s1.3-0.9,2.1-1.2
				s1.7-0.4,2.6-0.4c1.4,0,2.6,0.2,3.5,0.7c1,0.5,1.8,1.2,2.5,2.2l-2.2,2.5c-0.5-0.6-1.1-1.1-1.7-1.5c-0.7-0.4-1.3-0.7-2.1-0.7
				c-0.9,0-1.7,0.3-2.3,0.8s-0.9,1.2-0.9,2.1v8.4c0,1,0.3,1.7,0.9,2.2c0.6,0.5,1.4,0.7,2.4,0.7c0.6,0,1.1,0,1.5-0.1s0.9-0.3,1.3-0.7
				v-4.4h-3.1V9.4z"/>
			<polygon id="Clip-67" class="st0" points="144.5,9.1 143.5,12.5 146.6,12.5 147.6,9.1 			"/>
			<g id="Clip-61">
				<polygon id="path-1_1_" class="st0" points="135.6,0.4 135.6,16.7 127.2,0.4 122.5,0.4 122.5,20.6 125.7,20.6 125.7,4.6 
					133.8,20.6 138.8,20.6 138.8,0.4 				"/>
			</g>
		</g>
	</g>
</g>
</svg>
