<?xml version="1.0" encoding="utf-8"?>
<!-- Generator: Adobe Illustrator 20.1.0, SVG Export Plug-In . SVG Version: 6.00 Build 0)  -->
<svg version="1.1" id="Layer_1" xmlns="http://www.w3.org/2000/svg" xmlns:xlink="http://www.w3.org/1999/xlink" x="0px" y="0px"
	 viewBox="0 0 29 29" style="enable-background:new 0 0 29 29;" xml:space="preserve">
<style type="text/css">
	.st0{fill:#FFFFFF;}
</style>
<title>Fill 1</title>
<desc>Created with Sketch.</desc>
<g id="Page-1">
	<g id="_x31_-copy" transform="translate(-1086.000000, -795.000000)">
		<path id="Fill-1" class="st0" d="M1113.3,795h-25.7c-0.9,0-1.6,0.7-1.6,1.6v25.7c0,0.9,0.7,1.6,1.6,1.6h13.8v-11.2h-3.8v-4.4h3.8
			v-3.2c0-3.7,2.3-5.8,5.6-5.8c1.6,0,3,0.1,3.4,0.2v3.9h-2.3c-1.8,0-2.2,0.9-2.2,2.1v2.8h4.3l-0.6,4.4h-3.8v11.2h7.4
			c0.9,0,1.6-0.7,1.6-1.6v-25.7C1114.9,795.7,1114.2,795,1113.3,795"/>
	</g>
</g>
</svg>
