<?xml version="1.0" encoding="utf-8"?>
<!-- Generator: Adobe Illustrator 20.1.0, SVG Export Plug-In . SVG Version: 6.00 Build 0)  -->
<svg version="1.1" id="Layer_1" xmlns="http://www.w3.org/2000/svg" xmlns:xlink="http://www.w3.org/1999/xlink" x="0px" y="0px"
	 viewBox="0 0 112 21" style="enable-background:new 0 0 112 21;" xml:space="preserve">
<style type="text/css">
	.st0{fill:#FFFFFF;}
</style>
<g id="Group-2">
	<g id="Clip-2">
	</g>
	<path id="Fill-1" class="st0" d="M14.9,12.5h-2.3v-0.7h7.5v0.7h-1.8v8.1h-0.6c0-1.3-0.4-1.8-1.2-1.8c-1.7,0-2.6,2.1-6.4,2.1
		C5.3,20.9,0,17.8,0,10.5S5.3,0.1,10.4,0.1c3.6,0,4.9,1.3,6,1.3c0.7,0,1-0.7,1-1H18V7h-0.5c-0.2-2.5-1.9-6.2-7.1-6.2
		c-4.2,0-6.3,2.9-6.3,9.7s2,9.7,6,9.7c3.4,0,4.7-1.7,4.7-5.2v-2.5C14.8,12.5,14.9,12.5,14.9,12.5z"/>
</g>
<path id="Fill-4" class="st0" d="M45.2,1.1h-2.1v12.4c0,5.8-3.3,7.4-7.6,7.4c-5.4,0-8.6-2.3-8.6-7.7V1.1h-2.1V0.4h6h2.1v0.7h-2.1
	v12.1c0,4.9,2.1,6.9,5.9,6.9c3.4,0,5.5-1.9,5.5-6.8V1.1h-2.9V0.4h5.8v0.7H45.2z"/>
<path id="Fill-7" class="st0" d="M56.7,0.2L48.8,20h-2.4v0.6h2.2h3.9V20h-2.8l2.3-5.8h7.8l2.4,5.8h-2.5v0.6h2.8h5.7V20h-2L57.5,0.2
	H56.7z M55.7,4.8l3.7,8.8h-7.2L55.7,4.8z"/>
<path id="Fill-8" class="st0" d="M100.5,0.2L92.6,20h-2.4v0.6h2.2h3.9V20h-2.8l2.3-5.8h7.8L106,20h-2.5v0.6h2.8h5.7V20h-2l-8.6-19.8
	C101.4,0.2,100.5,0.2,100.5,0.2z M99.5,4.8l3.7,8.8H96L99.5,4.8z"/>
<path id="Fill-9" class="st0" d="M86.7,1.1h-2.1v13c0,4.1-2.2,6.8-7,6.8c-3.1,0-5-1.8-5-5.1c0-1.7,0.9-2.9,2.3-2.9
	c1.1,0,1.9,0.8,1.9,2c0,2.1-2.9,1.3-2.9,2.7c0,1.6,1.4,2.7,3.5,2.7c2.5,0,3.2-1.4,3.2-4.7V1.1h-2.1V0.5h6h2.1L86.7,1.1L86.7,1.1z"/>
</svg>
