<svg id="Layer_1" data-name="Layer 1" xmlns="http://www.w3.org/2000/svg" viewBox="0 0 443.94 95.68">
  <defs>
    <style>
      .cls-1 {
        fill: #fff;
      }
    </style>
  </defs>
  <title>studiosol</title>
  <g>
    <path class="cls-1" d="M910.18,483a5.31,5.31,0,0,0,1,1.43l1.95,2.14,5,5.28,1.22,1.27.64.74c2,2.36,3,3.33,4.33,3.67,2.57.66,4.32,0,5.07-1.58.95-2-.4-4.74-2.56-6.35a34.78,34.78,0,0,0-3.54-2.24l-.76-.44a22.73,22.73,0,0,1-2.7-1.78c-.67-.48-1.45-1.09-2.73-2.09l-2.51-1.93a6.7,6.7,0,0,0-1.65-1,2.17,2.17,0,0,0-2.81,2.91Z" transform="translate(-497.93 -402.07)"/>
    <path class="cls-1" d="M638.89,477h8.93c.35,0,.18-.58.18-.93V422.48c0-.35.17-.48-.18-.48h-8.93c-.35,0,.11.13.11.48V437.2A25.1,25.1,0,0,0,627.15,434c-12,0-21.87,9.57-21.87,21.37s10,21.37,22,21.37c4.22,0,7.76-1.19,11.76-3.24v2.6C639,476.42,638.54,477,638.89,477Zm-12.12-10.5a11.17,11.17,0,1,1,11.48-11.16A11.33,11.33,0,0,1,626.77,466.5Z" transform="translate(-497.93 -402.07)"/>
    <path class="cls-1" d="M573.19,435h-8.93c-.35,0-.26-.12-.26.24v24.24c0,3.59-.21,17.22,15.09,17.22,9.57,0,11.91-3.19,11.91-3.19v2.55c0,.35.34.94.69.94h8.93c.35,0,1.38-.59,1.38-.93V435.24c0-.35-1-.24-1.38-.24h-8.93c-.35,0-.64.08-.64.44,0,0,.08,20.27,0,21.58-.21,3.56-1.65,9.52-9.57,9.52-6.6,0-7.57-6-7.65-9.59,0-1.27,0-21.51,0-21.51C573.83,435.1,573.55,435,573.19,435Z" transform="translate(-497.93 -402.07)"/>
    <path class="cls-1" d="M864.24,451.08A2.18,2.18,0,0,0,867,451a8.52,8.52,0,0,0,1.3-1.52,7,7,0,0,0,1.32-3.77,6.18,6.18,0,0,0-2-4.63,5.15,5.15,0,0,0-5.27-1.43c-3.5,1-7,6-7.88,10.23s.94,7.82,5.22,9.52c3.68,1.47,9.28,1.63,15,.49,5.42-1.08,10-3.1,11.61-5.75,2-3.21,1.31-7.46-1.64-12a28.68,28.68,0,0,0-7.56-8.63c-5.09-4.17-15.06-5.54-22.74-3.39-10.31,3.09-20,12.7-20.87,22.15-1.08,10.47,8.39,22.51,20.61,28.6,10.18,5.15,23.66,4,34.32-2.91,9.28-6,14.35-15.15,13.84-25.05-.55-9.25-5.84-18.87-14.5-26.46-7.93-6.95-17.74-11.27-25.7-11.27a2.15,2.15,0,0,0-.42,4.26,45.87,45.87,0,0,1,21.12,10.71c6.22,5.61,10.32,12.5,10.79,20.59q0,.48,0,1c0,7.22-3.92,13.87-10.9,18.39-8.49,5.5-19.56,6.47-27.49,2.46-8.58-4.27-14.15-13.68-13.27-22.28.59-6.45,7.67-12.56,16.26-15.13a18,18,0,0,1,15.59,2.48c3.26,2.57,6.24,6.79,6.24,9.75a3.73,3.73,0,0,1-.57,2c-1.82,3-13.68,6.31-18.41,4.43-1.57-.62-2.05-1.65-1.62-3.59.46-2.16,2.29-4.73,3.61-5.11.36-.11.65,0,1.07.41.23.23,0,1.81-.54,2.86A2.14,2.14,0,0,0,864.24,451.08Z" transform="translate(-497.93 -402.07)"/>
    <path class="cls-1" d="M558.54,466.1Z" transform="translate(-497.93 -402.07)"/>
    <path class="cls-1" d="M504.41,462a.64.64,0,0,0-.82.14l-5.51,7.43a.66.66,0,0,0,.1.94A30,30,0,0,0,507,475a33,33,0,0,0,10,1.66c14.68,0,16.59-9.43,16.59-13.51s-3-9-8.61-10.78c-1.16-.38-3.08-1.07-5.81-1.89a36.54,36.54,0,0,1-5.85-2.16c-1.18-.62-3.2-4.19,3.06-4.19a20.81,20.81,0,0,1,10.62,3.16.65.65,0,0,0,.9-.21l4.53-7.62a.69.69,0,0,0-.18-1l-.1-.06A27.47,27.47,0,0,0,517.62,434q-7.61,0-12.42,3.62a11.2,11.2,0,0,0-4.81,9.36,9.48,9.48,0,0,0,4.89,8.66,31.07,31.07,0,0,0,4.29,2.23q1.88.77,5.45,1.85a21.68,21.68,0,0,1,5.45,2.31c1.26.82,1.88,1.53,1.88,2.7C522.35,467.72,514.39,468.39,504.41,462Z" transform="translate(-497.93 -402.07)"/>
    <path class="cls-1" d="M547,422h-8.93c-.35,0-1.11.13-1.11.48v37a19.72,19.72,0,0,0,4.06,11.5,15.57,15.57,0,0,0,11.61,5.72,24.76,24.76,0,0,0,9.64-1.57c.25-.11.13,0,.13,0a.65.65,0,0,0,.33-.85l-3.49-7.7a.68.68,0,0,0-.75-.43l-.62.15a12.81,12.81,0,0,1-2.57.24c-6.6,0-7.57-6-7.65-9.65,0-.51,0-5.84,0-12.84h10.22c.34,0,.11-.12.11-.47v-8.28c0-.36.24-.25-.11-.25H547.67c0-7,0-12.24,0-12.24A.75.75,0,0,0,547,422Z" transform="translate(-497.93 -402.07)"/>
    <path class="cls-1" d="M653,476.07c0,.35.84.93,1.2.93h8.93a1.2,1.2,0,0,0,.87-.93V435.24c0-.35-.52-.24-.87-.24H654.2c-.35,0-1.2-.1-1.2.24Z" transform="translate(-497.93 -402.07)"/>
    <path class="cls-1" d="M658.66,432.05a5,5,0,1,0-3.63-1.48A4.91,4.91,0,0,0,658.66,432.05Z" transform="translate(-497.93 -402.07)"/>
    <path class="cls-1" d="M807.28,477c.35,0,.72-.58.72-.93V422.48c0-.35-.36-.48-.72-.48h-8.93c-.35,0-1.35.13-1.35.48v53.59c0,.35,1,.93,1.35.93Z" transform="translate(-497.93 -402.07)"/>
    <path class="cls-1" d="M926,402.38c-2-1-4.76.4-6.36,2.57a28.3,28.3,0,0,0-1.56,2.39l-.67,1.15a27.12,27.12,0,0,1-2.22,3.47c-.46.64-1,1.31-2.09,2.72l-1.93,2.51a6.71,6.71,0,0,0-1,1.65,2.17,2.17,0,0,0,2.92,2.79,5.32,5.32,0,0,0,1.43-1l2.16-2,5.25-5,1.28-1.23.74-.65c2.36-2,3.33-3,3.65-4.33C928.24,404.88,927.6,403.13,926,402.38Z" transform="translate(-497.93 -402.07)"/>
    <path class="cls-1" d="M793.89,455.33A21.69,21.69,0,1,0,772.2,476.7,21.53,21.53,0,0,0,793.89,455.33Zm-33.18,0A11.49,11.49,0,1,1,772.2,466.5,11.33,11.33,0,0,1,760.71,455.33Z" transform="translate(-497.93 -402.07)"/>
    <path class="cls-1" d="M924,448.56l-3.12.44a6.51,6.51,0,0,0-1.88.47,2.19,2.19,0,0,0-1.34,2.07,2.13,2.13,0,0,0,1.39,2.07,5.11,5.11,0,0,0,1.72.3l2.88.13,7.26.13,1.75,0,1,.06c3.1.24,4.47.18,5.62-.52,2.26-1.39,3-3.13,2.47-4.82-.75-2.17-3.61-3.15-6.27-2.73a32.76,32.76,0,0,0-4.06,1c-1.34.38-1.89.52-2.59.68-.5.11-1,.19-1.41.25C926.57,448.22,925.69,448.34,924,448.56Z" transform="translate(-497.93 -402.07)"/>
    <path class="cls-1" d="M718.72,462a.64.64,0,0,0-.82.14l-5.51,7.43a.66.66,0,0,0,.1.94,30,30,0,0,0,8.87,4.5,33,33,0,0,0,10,1.66c14.68,0,16.59-9.43,16.59-13.51s-3-9-8.61-10.78c-1.16-.38-3.09-1.07-5.81-1.89a36.55,36.55,0,0,1-5.85-2.16c-1.18-.62-3.2-4.19,3.06-4.19a20.81,20.81,0,0,1,10.62,3.16.65.65,0,0,0,.9-.21l4.53-7.62a.69.69,0,0,0-.18-1l-.1-.06A27.48,27.48,0,0,0,731.94,434q-7.61,0-12.42,3.62a11.2,11.2,0,0,0-4.81,9.36,9.48,9.48,0,0,0,4.89,8.66,31.07,31.07,0,0,0,4.29,2.23q1.88.77,5.45,1.85a21.69,21.69,0,0,1,5.45,2.31c1.26.82,1.88,1.53,1.88,2.7C736.66,467.72,728.7,468.39,718.72,462Z" transform="translate(-497.93 -402.07)"/>
    <path class="cls-1" d="M711,455.33a21.69,21.69,0,1,0-21.69,21.37A21.53,21.53,0,0,0,711,455.33Zm-33.17,0a11.49,11.49,0,1,1,11.48,11.16A11.33,11.33,0,0,1,677.8,455.33Z" transform="translate(-497.93 -402.07)"/>
  </g>
</svg>
